# xmcd
#
# Track frame offsets:
#	150
#	10435
#	21147
#	32346
#	44933
#	58478
#	71880
#	83029
#	94586
#	104216
#	117278
#	130910
#
# Disc length: 1891 seconds
#
# Revision: 0
# Processed by: cddbd v1.4PL0 Copyright (c) Steve Scherf et al.
# Submitted via: EasyCDDAExtractor 4.6.0.1
#
DISCID=ae07610c
DTITLE=Charley Pride - Platinum Pride Greatest Hits Vol  1
DYEAR=1900
DGENRE=Country
TTITLE0=Just Between You And Me
TTITLE1=I Know One
TTITLE2=Does My Ring Hurt Your Finger
TTITLE3=Kaw-Liga
TTITLE4=All I Have To Offer You Is Me
TTITLE5=I'm So Afraid Of Losing You
TTITLE6=Is Anybody Goin' To San Antone
TTITLE7=I'm Just Me 
TTITLE8=Kiss An Angle Good Morning
TTITLE9=She's Too Good To Be True 
TTITLE10=Amazing Love
TTITLE11=Mississippi Cotton Picking Delta Town
EXTD=
EXTT0=
EXTT1=
EXTT2=
EXTT3=
EXTT4=
EXTT5=
EXTT6=
EXTT7=
EXTT8=
EXTT9=
EXTT10=
EXTT11=
PLAYORDER=
